<svg width="327" height="138" viewBox="0 0 327 138" fill="none" xmlns="http://www.w3.org/2000/svg">
<g clip-path="url(#clip0_1205_5723)">
<rect width="327" height="138" rx="10" fill="#001B49"/>
<path d="M25.5943 -0.00679811C100.856 -6.08912 89.0832 -41.0125 164.345 -47.0948C239.607 -53.1771 231.469 -42.9529 306.731 -49.0352C381.993 -55.1175 371.662 -38.566 446.924 -44.6483C522.187 -50.7306 535.583 -43.7393 610.845 -49.8217" stroke="white" stroke-opacity="0.1" stroke-width="2.0694" stroke-linecap="round"/>
<path d="M25.5937 -0.00636697C99.1301 -5.94923 106.521 -31.4881 180.058 -37.4309C253.594 -43.3738 239.812 -62.0765 313.348 -68.0194C386.885 -73.9622 387.729 -46.0138 461.265 -51.9567C534.802 -57.8996 539.929 -44.1932 613.466 -50.1361" stroke="white" stroke-opacity="0.1" stroke-width="2.0694" stroke-linecap="round"/>
<circle cx="9.5" cy="155.5" r="45.5" fill="#469B88"/>
<path d="M251.568 -9.44397H345V80.223C345 80.223 303.01 84.6721 292.979 37.9563C282.949 -8.75949 251.568 -9.44397 251.568 -9.44397Z" fill="#FFCB3D"/>
<path d="M245.921 -18H339.353V71.6669C339.353 71.6669 339.524 31.2826 287.332 29.4003C235.141 27.5179 245.921 -18 245.921 -18Z" fill="#377CC8"/>
</g>
<defs>
<clipPath id="clip0_1205_5723">
<rect width="327" height="138" rx="10" fill="white"/>
</clipPath>
</defs>
</svg>
