<svg width="20" height="18" viewBox="0 0 20 18" fill="none" xmlns="http://www.w3.org/2000/svg">
<path d="M19.25 6.15C16.94 2.52 13.56 0.43 10 0.43C8.22 0.43 6.49 0.95 4.91 1.92C3.33 2.9 1.91 4.33 0.75 6.15C-0.25 7.72 -0.25 10.27 0.75 11.84C3.06 15.48 6.44 17.56 10 17.56C11.78 17.56 13.51 17.04 15.09 16.07C16.67 15.09 18.09 13.66 19.25 11.84C20.25 10.28 20.25 7.72 19.25 6.15ZM10 13.04C7.76 13.04 5.96 11.23 5.96 9C5.96 6.77 7.76 4.96 10 4.96C12.24 4.96 14.04 6.77 14.04 9C14.04 11.23 12.24 13.04 10 13.04Z" fill="#014479"/>
<path d="M10 6.14C8.43 6.14 7.15 7.42 7.15 9C7.15 10.57 8.43 11.85 10 11.85C11.57 11.85 12.86 10.57 12.86 9C12.86 7.43 11.57 6.14 10 6.14Z" fill="#014479"/>
</svg>
