<svg width="22" height="17" viewBox="0 0 22 17" fill="none" xmlns="http://www.w3.org/2000/svg">
<path fill-rule="evenodd" clip-rule="evenodd" d="M17.2097 0.887101L17.2929 0.792893C17.6534 0.432409 18.2206 0.40468 18.6129 0.709705L18.7071 0.792893L20.7071 2.79289L20.7485 2.83685L20.797 2.89587L20.8753 3.01594L20.9284 3.12767L20.9596 3.21808L20.9847 3.32535L20.9983 3.44074L20.9984 3.5568L20.9854 3.67067L20.9732 3.73106L20.9401 3.84167L20.9063 3.92322L20.854 4.02071L20.7872 4.11675L20.7313 4.18209L18.7071 6.20711C18.3166 6.59763 17.6834 6.59763 17.2929 6.20711C16.9324 5.84662 16.9047 5.27939 17.2097 4.8871L17.2929 4.79289L17.584 4.5H15C11.7519 4.5 10.1145 5.49471 8.00178 8.49842C10.1141 11.5051 11.7516 12.5 15 12.5H17.585L17.2929 12.2071C16.9324 11.8466 16.9047 11.2794 17.2097 10.8871L17.2929 10.7929C17.6534 10.4324 18.2206 10.4047 18.6129 10.7097L18.7071 10.7929L20.7071 12.7929L20.7485 12.8369L20.8037 12.9047L20.8753 13.0159L20.9248 13.1187L20.9642 13.234L20.9931 13.3819L21 13.5L20.9976 13.5696L20.9857 13.6692L20.9503 13.8121L20.9082 13.9192L20.854 14.0207L20.7803 14.1254L20.7071 14.2071L18.7071 16.2071C18.3166 16.5976 17.6834 16.5976 17.2929 16.2071C16.9324 15.8466 16.9047 15.2794 17.2097 14.8871L17.2929 14.7929L17.584 14.5H15C11.2046 14.5 9.11471 13.3298 6.82647 10.2839L6.31763 11.0811C6.17998 11.2943 6.05472 11.485 5.9353 11.6629L5.81759 11.8367L5.58805 12.167L5.35664 12.4878C4.40438 13.7846 3.32404 14.5 2 14.5C1.44772 14.5 1 14.0523 1 13.5C1 12.9872 1.38604 12.5645 1.88338 12.5067L2.12472 12.4944C2.66311 12.4457 3.17694 12.077 3.74458 11.304C3.98574 10.9756 4.20753 10.6542 4.47754 10.2421L4.64588 9.9831L5.591 8.5L4.64588 7.0169C4.29546 6.47404 4.03397 6.09008 3.74458 5.69598C3.17694 4.92296 2.66311 4.55432 2.12472 4.5056L2 4.5C1.44772 4.5 1 4.05228 1 3.5C1 2.94772 1.44772 2.5 2 2.5C3.32404 2.5 4.40438 3.21542 5.35664 4.51223L5.58805 4.83304L5.81759 5.16326L6.18387 5.71286C6.31399 5.91214 6.45432 6.13066 6.6114 6.37783L6.82647 6.71606C9.04537 3.76254 11.0777 2.57265 14.6596 2.50324L15 2.5H17.585L17.2929 2.20711C16.9324 1.84662 16.9047 1.27939 17.2097 0.887101Z" fill="black" stroke="black" stroke-width="0.1"/>
</svg>
