<svg width="24" height="25" viewBox="0 0 24 25" fill="none" xmlns="http://www.w3.org/2000/svg">
<path d="M2 3.5H4.5L6.5 17.5H17M17 17.5C15.8954 17.5 15 18.3954 15 19.5C15 20.6046 15.8954 21.5 17 21.5C18.1046 21.5 19 20.6046 19 19.5C19 18.3954 18.1046 17.5 17 17.5ZM6.07142 14.5H18L21 5.5H4.78571M11 19.5C11 20.6046 10.1046 21.5 9 21.5C7.89543 21.5 7 20.6046 7 19.5C7 18.3954 7.89543 17.5 9 17.5C10.1046 17.5 11 18.3954 11 19.5Z" stroke="white" stroke-width="1.5" stroke-linecap="round" stroke-linejoin="round"/>
</svg>
