<svg width="21" height="20" viewBox="0 0 21 20" fill="none" xmlns="http://www.w3.org/2000/svg">
<path d="M19.27 7.175C18.98 6.715 18.67 6.285 18.35 5.885C17.98 5.415 17.28 5.375 16.86 5.795L13.86 8.795C14.08 9.455 14.12 10.215 13.92 11.005C13.57 12.415 12.43 13.555 11.02 13.905C10.23 14.105 9.47 14.065 8.81 13.845C8.81 13.845 7.38 15.275 6.35 16.305C5.85 16.805 6.01 17.685 6.68 17.945C7.75 18.355 8.86 18.565 10 18.565C11.78 18.565 13.51 18.045 15.09 17.075C16.7 16.075 18.15 14.605 19.32 12.735C20.27 11.225 20.22 8.685 19.27 7.175Z" fill="#014479"/>
<path d="M12.02 7.975L7.98 12.015C7.47 11.495 7.14 10.775 7.14 9.995C7.14 8.425 8.42 7.135 10 7.135C10.78 7.135 11.5 7.465 12.02 7.975Z" fill="#014479"/>
<path d="M16.25 3.745L12.86 7.135C12.13 6.395 11.12 5.955 10 5.955C7.76 5.955 5.96 7.765 5.96 9.995C5.96 11.115 6.41 12.125 7.14 12.855L3.76 16.245H3.75C2.64 15.345 1.62 14.195 0.75 12.835C-0.25 11.265 -0.25 8.715 0.75 7.145C1.91 5.325 3.33 3.895 4.91 2.915C6.49 1.955 8.22 1.425 10 1.425C12.23 1.425 14.39 2.245 16.25 3.745Z" fill="#014479"/>
<path d="M12.86 9.995C12.86 11.565 11.58 12.855 10 12.855C9.94 12.855 9.89 12.855 9.83 12.835L12.84 9.825C12.86 9.885 12.86 9.935 12.86 9.995Z" fill="#014479"/>
<path d="M19.77 0.225C19.47 -0.075 18.98 -0.075 18.68 0.225L0.230001 18.685C-0.0699989 18.985 -0.0699989 19.475 0.230001 19.775C0.380001 19.915 0.570001 19.995 0.770001 19.995C0.970001 19.995 1.16 19.915 1.31 19.765L19.77 1.305C20.08 1.005 20.08 0.525 19.77 0.225Z" fill="#014479"/>
</svg>
