<svg width="32" height="32" viewBox="0 0 32 32" fill="none" xmlns="http://www.w3.org/2000/svg">
<path d="M8.66662 9.33331C10.6151 7.38484 12.7913 5.89196 14.2633 4.98781C15.3361 4.32885 16.6638 4.32885 17.7366 4.98781C19.2086 5.89196 21.3848 7.38485 23.3333 9.33331C27.5578 13.5578 27.3333 16 27.3333 20C27.3333 21.8797 27.1861 23.465 27.03 24.6175C26.8658 25.8301 25.8082 26.6666 24.5846 26.6666H22.6666C21.1939 26.6666 20 25.4727 20 24V21.3333C20 20.2724 19.5785 19.255 18.8284 18.5049C18.0782 17.7547 17.0608 17.3333 16 17.3333C14.9391 17.3333 13.9217 17.7547 13.1715 18.5049C12.4214 19.255 12 20.2724 12 21.3333V24C12 25.4727 10.806 26.6666 9.33329 26.6666H7.41536C6.19171 26.6666 5.13415 25.8301 4.96993 24.6175C4.81385 23.465 4.66662 21.8797 4.66662 20C4.66662 16 4.44209 13.5578 8.66662 9.33331Z" stroke="#414141" stroke-width="2" stroke-linecap="round" stroke-linejoin="round"/>
</svg>
