<svg width="24" height="25" viewBox="0 0 24 25" fill="none" xmlns="http://www.w3.org/2000/svg">
<path d="M6 10V15M18 10V15M3.11111 6.5H20.8889C21.5025 6.5 22 7.03726 22 7.7V17.3C22 17.9627 21.5025 18.5 20.8889 18.5H3.11111C2.49746 18.5 2 17.9627 2 17.3V7.7C2 7.03726 2.49746 6.5 3.11111 6.5ZM14.5 12.5C14.5 13.8807 13.3807 15 12 15C10.6193 15 9.5 13.8807 9.5 12.5C9.5 11.1193 10.6193 10 12 10C13.3807 10 14.5 11.1193 14.5 12.5Z" stroke="white" stroke-width="1.5" stroke-linecap="round" stroke-linejoin="round"/>
</svg>
