<svg width="24" height="24" viewBox="0 0 24 24" fill="none" xmlns="http://www.w3.org/2000/svg">
<path fill-rule="evenodd" clip-rule="evenodd" d="M5.45387 7.85899C5.82448 4.52345 8.64385 2 11.9999 2C15.356 2 18.1753 4.52346 18.546 7.85899L18.7978 10.1252L18.8038 10.1793C18.9166 11.1625 19.2367 12.1106 19.7428 12.9611L19.7707 13.0077L20.3488 13.9711L20.3729 14.0114C20.6144 14.4138 20.8333 14.7785 20.979 15.0879C21.1271 15.4024 21.2855 15.8286 21.2093 16.3117C21.1339 16.7893 20.8882 17.2233 20.5174 17.5337C20.1424 17.8476 19.6955 17.931 19.3496 17.9658C19.0092 18.0001 18.584 18 18.1146 18L18.0677 18H5.93214L5.88524 18C5.41585 18 4.9906 18.0001 4.65023 17.9658C4.30434 17.931 3.85746 17.8476 3.48239 17.5337C3.11167 17.2233 2.86589 16.7893 2.79054 16.3117C2.71431 15.8286 2.87268 15.4024 3.0208 15.0879C3.16655 14.7785 3.38537 14.4138 3.62689 14.0114L3.65104 13.9711L4.22907 13.0077L4.25702 12.9611C4.76315 12.1106 5.08319 11.1625 5.19602 10.1793L5.20207 10.1252L5.45387 7.85899ZM11.9999 4C9.66295 4 7.69971 5.75718 7.44164 8.07985L7.18984 10.3461L7.18298 10.4073C7.03791 11.6714 6.62643 12.8904 5.97569 13.9839L5.94406 14.0367L5.36602 15.0001C5.09252 15.456 4.9277 15.733 4.83017 15.9401C4.82484 15.9514 4.81995 15.9621 4.81547 15.972C4.82633 15.9733 4.83797 15.9746 4.85043 15.9759C5.07817 15.9988 5.40055 16 5.93214 16H18.0677C18.5993 16 18.9216 15.9988 19.1494 15.9759C19.1618 15.9746 19.1735 15.9733 19.1844 15.972C19.1799 15.9621 19.175 15.9514 19.1696 15.9401C19.0721 15.733 18.9073 15.456 18.6338 15.0001L18.0558 14.0367L18.0241 13.9839C17.3734 12.8904 16.9619 11.6714 16.8168 10.4073L16.81 10.3461L16.5582 8.07985C16.3001 5.75719 14.3369 4 11.9999 4Z" fill="#242424"/>
<path d="M9.10222 17.6647C9.27315 18.6215 9.64978 19.467 10.1737 20.0701C10.6976 20.6731 11.3396 21 12 21C12.6604 21 13.3024 20.6731 13.8263 20.0701C14.3502 19.467 14.7269 18.6215 14.8978 17.6647" stroke="#242424" stroke-width="2" stroke-linecap="round"/>
</svg>
