<svg width="15" height="16" viewBox="0 0 15 16" fill="none" xmlns="http://www.w3.org/2000/svg">
<path d="M10.7204 9.65223H10.0429L9.80274 9.42145C10.6432 8.44704 11.1492 7.18201 11.1492 5.80587C11.1492 2.73732 8.65352 0.25 5.57461 0.25C2.49571 0.25 0 2.73732 0 5.80587C0 8.87441 2.49571 11.3617 5.57461 11.3617C6.9554 11.3617 8.2247 10.8574 9.2024 10.0198L9.43396 10.2591V10.9344L13.7221 15.1996L15 13.926L10.7204 9.65223ZM5.57461 9.65223C3.43911 9.65223 1.71527 7.93419 1.71527 5.80587C1.71527 3.67754 3.43911 1.9595 5.57461 1.9595C7.71012 1.9595 9.43396 3.67754 9.43396 5.80587C9.43396 7.93419 7.71012 9.65223 5.57461 9.65223Z" fill="#001B49" fill-opacity="0.5"/>
</svg>
