<svg width="212" height="300" viewBox="0 0 212 300" fill="none" xmlns="http://www.w3.org/2000/svg">
<path d="M5.24393 23.2615C9.59716 -14.368 13.8783 -49.6191 30.542 -57.4272C47.2927 -64.9694 76.5795 -45.1189 99.6111 -39.7048C122.73 -34.0249 139.527 -42.4653 162.656 -40.9098C185.873 -39.0884 215.422 -27.2712 238.875 1.25846C262.482 29.7379 280.079 75.1956 276.111 108.284C272.296 141.322 246.762 162.041 234.575 193.404C222.388 224.766 223.549 266.772 211.021 286.178C198.493 305.584 172.517 302.606 150.025 283.769C127.466 265.249 108.479 231.137 82.6957 204.842C56.9994 178.812 24.4199 160.334 10.3325 130.8C-3.66781 101.531 0.977718 61.1569 5.24393 23.2615Z" fill="#008ABE"/>
</svg>
