<svg width="257" height="254" viewBox="0 0 257 254" fill="none" xmlns="http://www.w3.org/2000/svg">
<path d="M-50.2676 93.7425C-45.3408 51.1549 -40.4956 11.259 -21.6363 2.42212C-2.67849 -6.11386 30.4672 16.3522 56.5335 22.4796C82.6984 28.908 101.708 19.3554 127.886 21.1159C154.161 23.1773 187.604 36.5515 214.147 68.8403C240.864 101.072 260.781 152.519 256.289 189.968C251.972 227.359 223.073 250.808 209.28 286.303C195.488 321.798 196.802 369.339 182.623 391.302C168.444 413.265 139.045 409.894 113.59 388.575C88.0587 367.615 66.5699 329.008 37.3893 299.248C8.30724 269.789 -28.5651 248.876 -44.5086 215.45C-60.3536 182.325 -55.096 136.631 -50.2676 93.7425Z" fill="#D8E8ED"/>
</svg>
