<svg width="31" height="31" viewBox="0 0 31 31" fill="none" xmlns="http://www.w3.org/2000/svg">
<path d="M24.25 18C27.0114 18 29.25 20.5 29.25 22.375C29.25 23.4105 28.4105 24.25 27.375 24.25H26.75M21.75 14.25C23.8211 14.25 25.5 12.5711 25.5 10.5C25.5 8.42893 23.8211 6.75 21.75 6.75M6.75 18C3.98858 18 1.75 20.5 1.75 22.375C1.75 23.4105 2.58947 24.25 3.625 24.25H4.25M9.25 14.25C7.17893 14.25 5.5 12.5711 5.5 10.5C5.5 8.42893 7.17893 6.75 9.25 6.75M21.125 24.25H9.875C8.83947 24.25 8 23.4105 8 22.375C8 19.25 11.75 18 15.5 18C19.25 18 23 19.25 23 22.375C23 23.4105 22.1605 24.25 21.125 24.25ZM19.25 10.5C19.25 12.5711 17.5711 14.25 15.5 14.25C13.4289 14.25 11.75 12.5711 11.75 10.5C11.75 8.42893 13.4289 6.75 15.5 6.75C17.5711 6.75 19.25 8.42893 19.25 10.5Z" stroke="#414141" stroke-width="2" stroke-linecap="round" stroke-linejoin="round"/>
</svg>
